<svg width="112" height="112" viewBox="0 0 112 112" fill="none" xmlns="http://www.w3.org/2000/svg">
<path d="M81.4545 16.29V12C81.4545 8.8174 79.8455 5.76516 76.9813 3.51472C74.1171 1.26428 70.2324 0 66.1818 0H45.8182C41.7676 0 37.8829 1.26428 35.0187 3.51472C32.1545 5.76516 30.5455 8.8174 30.5455 12V16.29C22.0696 17.2607 14.3206 20.5938 8.71292 25.6809C3.10521 30.7681 0.0127546 37.27 0 44V104C0 106.122 1.07272 108.157 2.98219 109.657C4.89165 111.157 7.48143 112 10.1818 112H101.818C104.519 112 107.108 111.157 109.018 109.657C110.927 108.157 112 106.122 112 104V44C111.987 37.27 108.895 30.7681 103.287 25.6809C97.6794 20.5938 89.9304 17.2607 81.4545 16.29ZM45.8182 8H66.1818C67.532 8 68.8269 8.42143 69.7816 9.17157C70.7364 9.92172 71.2727 10.9391 71.2727 12V16H40.7273V12C40.7273 10.9391 41.2636 9.92172 42.2184 9.17157C43.1731 8.42143 44.468 8 45.8182 8ZM81.4545 76H30.5455V72C30.5455 70.9391 31.0818 69.9217 32.0365 69.1716C32.9913 68.4214 34.2862 68 35.6364 68H76.3636C77.7138 68 79.0087 68.4214 79.9635 69.1716C80.9182 69.9217 81.4545 70.9391 81.4545 72V76ZM30.5455 84H61.0909V88C61.0909 89.0609 61.6273 90.0783 62.582 90.8284C63.5367 91.5786 64.8316 92 66.1818 92C67.532 92 68.8269 91.5786 69.7816 90.8284C70.7364 90.0783 71.2727 89.0609 71.2727 88V84H81.4545V104H30.5455V84ZM101.818 104H91.6364V72C91.6364 68.8174 90.0273 65.7652 87.1631 63.5147C84.2989 61.2643 80.4142 60 76.3636 60H35.6364C31.5858 60 27.7011 61.2643 24.8369 63.5147C21.9727 65.7652 20.3636 68.8174 20.3636 72V104H10.1818V44C10.1818 38.6957 12.8636 33.6086 17.6373 29.8579C22.4109 26.1071 28.8854 24 35.6364 24H76.3636C83.1146 24 89.5891 26.1071 94.3627 29.8579C99.1364 33.6086 101.818 38.6957 101.818 44V104ZM71.2727 40C71.2727 41.0609 70.7364 42.0783 69.7816 42.8284C68.8269 43.5786 67.532 44 66.1818 44H45.8182C44.468 44 43.1731 43.5786 42.2184 42.8284C41.2636 42.0783 40.7273 41.0609 40.7273 40C40.7273 38.9391 41.2636 37.9217 42.2184 37.1716C43.1731 36.4214 44.468 36 45.8182 36H66.1818C67.532 36 68.8269 36.4214 69.7816 37.1716C70.7364 37.9217 71.2727 38.9391 71.2727 40Z" fill="#474747"/>
</svg>
