<svg width="112" height="112" viewBox="0 0 112 112" fill="none" xmlns="http://www.w3.org/2000/svg">
<path d="M85.813 63.9675C88.7807 63.9675 91.6269 62.7033 93.7255 60.4531C95.824 58.2029 97.0029 55.151 97.0029 51.9687C97.0029 48.7864 95.824 45.7345 93.7255 43.4843C91.6269 41.2341 88.7807 39.9699 85.813 39.9699C82.8452 39.9699 79.999 41.2341 77.9005 43.4843C75.802 45.7345 74.623 48.7864 74.623 51.9687C74.623 55.151 75.802 58.2029 77.9005 60.4531C79.999 62.7033 82.8452 63.9675 85.813 63.9675ZM85.813 59.9679C83.8345 59.9679 81.937 59.1251 80.538 57.625C79.139 56.1248 78.353 54.0902 78.353 51.9687C78.353 49.8472 79.139 47.8126 80.538 46.3124C81.937 44.8123 83.8345 43.9695 85.813 43.9695C87.7915 43.9695 89.6889 44.8123 91.088 46.3124C92.487 47.8126 93.2729 49.8472 93.2729 51.9687C93.2729 54.0902 92.487 56.1248 91.088 57.625C89.6889 59.1251 87.7915 59.9679 85.813 59.9679ZM57.8381 22.9717C57.8381 25.3584 56.9539 27.6474 55.38 29.335C53.8061 31.0227 51.6715 31.9708 49.4457 31.9708C47.2199 31.9708 45.0852 31.0227 43.5113 29.335C41.9374 27.6474 41.0532 25.3584 41.0532 22.9717C41.0532 20.585 41.9374 18.2961 43.5113 16.6084C45.0852 14.9208 47.2199 13.9727 49.4457 13.9727C51.6715 13.9727 53.8061 14.9208 55.38 16.6084C56.9539 18.2961 57.8381 20.585 57.8381 22.9717ZM35.4583 38.9701C35.4583 40.1518 35.2412 41.322 34.8194 42.4138C34.3977 43.5057 33.7795 44.4977 33.0002 45.3334C32.2208 46.169 31.2957 46.8319 30.2775 47.2841C29.2592 47.7364 28.1679 47.9691 27.0658 47.9691C25.9637 47.9691 24.8724 47.7364 23.8541 47.2841C22.8359 46.8319 21.9107 46.169 21.1314 45.3334C20.3521 44.4977 19.7339 43.5057 19.3122 42.4138C18.8904 41.322 18.6733 40.1518 18.6733 38.9701C18.6733 36.5834 19.5575 34.2944 21.1314 32.6068C22.7053 30.9191 24.84 29.971 27.0658 29.971C29.2916 29.971 31.4263 30.9191 33.0002 32.6068C34.574 34.2944 35.4583 36.5834 35.4583 38.9701ZM27.0658 75.9662C28.1679 75.9662 29.2592 75.7334 30.2775 75.2812C31.2957 74.8289 32.2208 74.1661 33.0002 73.3304C33.7795 72.4948 34.3977 71.5028 34.8194 70.4109C35.2412 69.3191 35.4583 68.1489 35.4583 66.9671C35.4583 65.7854 35.2412 64.6152 34.8194 63.5233C34.3977 62.4315 33.7795 61.4395 33.0002 60.6038C32.2208 59.7682 31.2957 59.1053 30.2775 58.6531C29.2592 58.2008 28.1679 57.9681 27.0658 57.9681C24.84 57.9681 22.7053 58.9162 21.1314 60.6038C19.5575 62.2915 18.6733 64.5804 18.6733 66.9671C18.6733 69.3538 19.5575 71.6428 21.1314 73.3304C22.7053 75.0181 24.84 75.9662 27.0658 75.9662ZM55.9731 84.9653C55.9731 87.352 55.0889 89.6409 53.515 91.3286C51.9412 93.0162 49.8065 93.9643 47.5807 93.9643C45.3549 93.9643 43.2202 93.0162 41.6463 91.3286C40.0724 89.6409 39.1882 87.352 39.1882 84.9653C39.1882 82.5786 40.0724 80.2896 41.6463 78.602C43.2202 76.9143 45.3549 75.9662 47.5807 75.9662C49.8065 75.9662 51.9412 76.9143 53.515 78.602C55.0889 80.2896 55.9731 82.5786 55.9731 84.9653Z" fill="#474747"/>
<path d="M56.7192 111.962C46.306 111.15 36.2502 107.544 27.4762 101.475C14.6525 93.4173 5.3326 80.2349 1.56028 64.8191C-0.0652282 58.1072 -0.425133 51.1148 0.501652 44.2518C1.42844 37.3888 3.62327 30.7932 6.95756 24.8513C20.9711 0.0538732 52.385 -7.27737 80.0204 7.82906C96.5032 16.8481 108.831 32.5905 111.419 47.9449C112.28 52.1816 112.183 56.5774 111.137 60.7657C110.091 64.9541 108.126 68.8136 105.407 72.0224C97.3574 81.4454 86.9694 81.3134 79.4199 81.2214H79.3938C74.3769 81.1254 71.2438 81.2214 70.494 82.8213C70.7551 84.0531 71.2102 85.237 71.8368 86.3129C73.7206 89.1536 74.6668 92.587 74.5256 96.0694C74.3844 99.5518 73.1639 102.884 71.0573 105.539C69.2886 107.719 67.0749 109.433 64.5882 110.547C62.1015 111.661 59.4088 112.145 56.7192 111.962ZM50.4864 7.97305C43.125 7.70487 35.8257 9.50076 29.3097 13.1833C22.7937 16.8658 17.2865 22.3076 13.3321 28.9709C10.5109 34.0116 8.65599 39.6052 7.8759 45.4242C7.0958 51.2432 7.40622 57.1706 8.78898 62.8593C12.0688 76.2147 20.1584 87.6279 31.2808 94.592C43.7799 102.543 59.7554 107.791 65.2646 100.483C68.2001 96.6118 67.2676 94.2241 65.2198 89.9965C64.1627 88.4656 63.4815 86.6743 63.239 84.7872C62.9966 82.9002 63.2006 80.978 63.8323 79.1976C66.7454 73.0383 73.2244 73.1063 79.4982 73.1983C86.3427 73.2982 94.1085 73.3982 99.9087 66.6029C101.825 64.2842 103.202 61.5122 103.928 58.5134C104.655 55.5146 104.709 52.3742 104.086 49.3487C101.93 36.5501 90.897 22.7395 76.641 14.9523C68.558 10.4571 59.5991 8.07259 50.4939 7.99304L50.4864 7.97305Z" fill="#474747"/>
</svg>
