<svg width="112" height="112" viewBox="0 0 112 112" fill="none" xmlns="http://www.w3.org/2000/svg">
<path fill-rule="evenodd" clip-rule="evenodd" d="M46.41 5.8335H65.59C71.974 5.8335 77.1166 5.8335 81.1626 6.3795C85.3626 6.9395 88.9 8.15283 91.7093 10.9575C94.5186 13.7668 95.7226 17.3042 96.292 21.5042C96.8333 25.5502 96.8333 30.6975 96.8333 37.0768V74.9235C96.8333 81.3028 96.8333 86.4502 96.292 90.4962C95.7273 94.6962 94.5186 98.2335 91.7093 101.043C88.9 103.852 85.3626 105.056 81.1626 105.626C77.1166 106.167 71.9693 106.167 65.59 106.167H46.41C40.0306 106.167 34.8833 106.167 30.8373 105.626C26.6373 105.056 23.1 103.852 20.2906 101.043C17.4813 98.2335 16.2773 94.6962 15.7126 90.4962C15.5273 89.0349 15.3996 87.5668 15.33 86.0955C15.1432 85.5032 15.1174 84.8718 15.2553 84.2662C15.1785 81.1526 15.149 78.038 15.1666 74.9235V37.0768C15.1666 30.6975 15.1666 25.5502 15.7126 21.5042C16.2726 17.3042 17.486 13.7668 20.2953 10.9575C23.1 8.14816 26.642 6.94416 30.842 6.3795C34.8833 5.8335 40.0306 5.8335 46.41 5.8335ZM22.2926 85.1668C22.3626 86.8142 22.4746 88.2655 22.6473 89.5628C23.1093 92.9882 23.954 94.7988 25.242 96.0915C26.5346 97.3842 28.35 98.2242 31.7753 98.6862C35.2986 99.1575 39.97 99.1668 46.6666 99.1668H65.3333C72.0346 99.1668 76.706 99.1575 80.2293 98.6862C83.6546 98.2242 85.4653 97.3795 86.7626 96.0915C88.0506 94.7988 88.8906 92.9882 89.3526 89.5582C89.74 86.6882 89.8193 83.0482 89.8287 78.1668H64.1666V91.2708C64.1666 91.7888 64.1666 92.5308 64.0733 93.1655C63.9886 93.8186 63.758 94.4442 63.3985 94.996C63.039 95.5478 62.5598 96.0115 61.9966 96.3528C61.4458 96.6636 60.8354 96.8542 60.2056 96.9121C59.5758 96.97 58.9409 96.8939 58.3426 96.6888C57.736 96.5022 57.0733 96.1802 56.5786 95.9468L56.4666 95.8908L51.3333 93.4548L46.2 95.8908L46.088 95.9468C45.5933 96.1802 44.9306 96.4975 44.324 96.6888C43.7257 96.8939 43.0908 96.97 42.461 96.9121C41.8312 96.8542 41.2208 96.6636 40.67 96.3528C40.1077 96.011 39.6294 95.547 39.2708 94.9953C38.9121 94.4435 38.6822 93.8182 38.598 93.1655C38.5241 92.5368 38.4929 91.9038 38.5046 91.2708V78.1668H36.8573C32.2933 78.1668 30.6973 78.1948 29.4746 78.5262C27.8281 78.966 26.3134 79.8 25.0614 80.9562C23.8093 82.1123 22.8574 83.5559 22.288 85.1622M45.4953 78.1622V88.4755L48.9953 86.8095L49.0326 86.7908C49.74 86.4119 50.5264 86.2041 51.3286 86.1842C52.43 86.1842 53.396 86.6742 53.6246 86.7908L53.6666 86.8095L57.1666 88.4708V78.1668L45.4953 78.1622ZM36.8526 71.1622H36.3113C32.494 71.1622 29.89 71.1622 27.6546 71.7595C25.6906 72.2905 23.8326 73.1556 22.162 74.3168V37.3335C22.162 30.6368 22.1713 25.9608 22.6426 22.4375C23.1046 19.0122 23.9493 17.2015 25.2373 15.9088C26.53 14.6162 28.3453 13.7762 31.7706 13.3142C35.294 12.8428 39.9653 12.8335 46.662 12.8335H65.3286C72.03 12.8335 76.7013 12.8428 80.2246 13.3142C83.65 13.7762 85.4606 14.6208 86.758 15.9088C88.046 17.2015 88.886 19.0122 89.348 22.4422C89.824 25.9608 89.8287 30.6368 89.8287 37.3335V71.1668L36.8526 71.1622ZM33.8333 32.6668C33.8333 31.7386 34.2021 30.8483 34.8584 30.192C35.5148 29.5356 36.4051 29.1668 37.3333 29.1668H74.6666C75.5949 29.1668 76.4851 29.5356 77.1415 30.192C77.7979 30.8483 78.1666 31.7386 78.1666 32.6668C78.1666 33.5951 77.7979 34.4853 77.1415 35.1417C76.4851 35.7981 75.5949 36.1668 74.6666 36.1668H37.3333C36.4051 36.1668 35.5148 35.7981 34.8584 35.1417C34.2021 34.4853 33.8333 33.5951 33.8333 32.6668ZM33.8333 49.0002C33.8333 48.0719 34.2021 47.1817 34.8584 46.5253C35.5148 45.8689 36.4051 45.5002 37.3333 45.5002H60.6666C61.5949 45.5002 62.4851 45.8689 63.1415 46.5253C63.7979 47.1817 64.1666 48.0719 64.1666 49.0002C64.1666 49.9284 63.7979 50.8187 63.1415 51.475C62.4851 52.1314 61.5949 52.5002 60.6666 52.5002H37.3333C36.4051 52.5002 35.5148 52.1314 34.8584 51.475C34.2021 50.8187 33.8333 49.9284 33.8333 49.0002Z" fill="#474747"/>
</svg>
