<svg width="117" height="117" viewBox="0 0 117 117" fill="none" xmlns="http://www.w3.org/2000/svg">
<path d="M10.8654 52.6496C8.58044 52.6496 6.38909 51.7646 4.77339 50.1893C3.15769 48.614 2.25 46.4774 2.25 44.2496C2.25 42.0218 3.15769 39.8852 4.77339 38.3099C6.38909 36.7346 8.58044 35.8496 10.8654 35.8496H15.1846C17.7356 26.2337 23.4906 17.7165 31.5455 11.6359C39.6004 5.5553 49.4989 2.25586 59.6859 2.25586C69.8729 2.25586 79.7713 5.5553 87.8263 11.6359C95.8812 17.7165 101.636 26.2337 104.187 35.8496H105.635C107.92 35.8496 110.111 36.7346 111.727 38.3099C113.342 39.8852 114.25 42.0218 114.25 44.2496C114.25 46.4774 113.342 48.614 111.727 50.1893C110.111 51.7646 107.92 52.6496 105.635 52.6496H105.279C103.877 63.475 98.4719 73.4296 90.0777 80.6458C81.6835 87.8619 70.877 91.8436 59.6859 91.8436C48.4948 91.8436 37.6883 87.8619 29.2941 80.6458C20.8999 73.4296 15.4949 63.475 14.0933 52.6496H10.8654Z" stroke="#474747" stroke-width="4.5" stroke-linejoin="round"/>
<path d="M16.6089 35.85H25.2243C34.3641 35.85 43.1295 32.31 49.5923 26.0088C56.0551 19.7076 59.6859 11.1613 59.6859 2.25C59.6859 11.1613 63.3166 19.7076 69.7794 26.0088C76.2422 32.31 85.0076 35.85 94.1474 35.85H102.763" stroke="#474747" stroke-width="4.5" stroke-linecap="round" stroke-linejoin="round"/>
<path d="M59.686 75.0502C61.2093 75.0502 62.6702 74.4602 63.7473 73.41C64.8244 72.3598 65.4296 70.9354 65.4296 69.4502H53.9424C53.9424 70.9354 54.5475 72.3598 55.6246 73.41C56.7018 74.4602 58.1627 75.0502 59.686 75.0502Z" stroke="#474747" stroke-width="2.5" stroke-linejoin="round"/>
<path d="M94.1472 114.25C94.1472 104.215 89.6327 95.2098 82.482 89.0498M25.2241 114.25C25.2241 104.215 29.7386 95.2098 36.8894 89.0498" stroke="#474747" stroke-width="4.5" stroke-linecap="round"/>
<path d="M42.4551 47.0498V47.1058M76.9166 47.0498V47.1058" stroke="#474747" stroke-width="5.67" stroke-linecap="round"/>
</svg>
