<svg width="112" height="112" viewBox="0 0 112 112" fill="none" xmlns="http://www.w3.org/2000/svg">
<rect x="2" y="2" width="108" height="108" stroke="#474747" stroke-width="4"/>
<path d="M83.1202 54.0331C88.688 34.3278 86.7677 16.5354 78.831 14.2929C70.8943 12.0503 59.9467 26.2067 54.3788 45.9121C48.8109 65.6174 50.7312 83.4098 58.6679 85.6523C66.6046 87.8949 77.5523 73.7385 83.1202 54.0331Z" stroke="#474747" stroke-width="4" stroke-linecap="round" stroke-linejoin="round"/>
<path d="M78.8341 14.2915L58.6694 85.6518M58.3637 35.8375L67.9631 52.7658M63.896 67.1532L79.6834 63.0232M83.1227 53.9745H99.1667M12.8334 53.9745H52.3577M70.8797 75.8425H99.1667M12.8334 75.8425H54.6327M12.8334 97.7082H55.8111M55.8111 97.7082L48.8554 85.0218M55.8111 97.7082L68.4997 90.7525" stroke="#474747" stroke-width="4" stroke-linecap="round" stroke-linejoin="round"/>
</svg>
