<svg width="112" height="112" viewBox="0 0 112 112" fill="none" xmlns="http://www.w3.org/2000/svg">
<path d="M61.6839 46.9661C67.6926 43.3821 72.9342 44.8269 76.0814 47.1229C77.3694 48.0693 78.019 48.5397 78.3998 48.5397C78.7806 48.5397 79.4246 48.0693 80.7182 47.1229C83.8654 44.8269 89.107 43.3821 95.1158 46.9661C103.001 51.6701 104.781 67.1765 86.6038 80.2581C83.1318 82.7501 81.407 83.9989 78.3998 83.9989C75.3926 83.9989 73.6622 82.7501 70.2014 80.2581C52.0183 67.1765 53.7991 51.6645 61.6839 46.9661Z" stroke="#474747" stroke-width="4" stroke-linecap="round"/>
<path d="M108.093 0H19.5348C14.3539 0 9.38512 1.73529 5.72163 4.82412C2.05813 7.91296 0 12.1023 0 16.4706V108.706C0 109.58 0.411626 110.417 1.14432 111.035C1.87702 111.653 2.87078 112 3.90697 112H97.6742C98.7104 112 99.7042 111.653 100.437 111.035C101.17 110.417 101.581 109.58 101.581 108.706C101.581 107.832 101.17 106.994 100.437 106.377C99.7042 105.759 98.7104 105.412 97.6742 105.412H7.81394V104.314C7.81394 101.693 9.04882 99.1791 11.2469 97.3258C13.445 95.4725 16.4263 94.4314 19.5348 94.4314H108.093C109.129 94.4314 110.123 94.0843 110.855 93.4666C111.588 92.8488 112 92.0109 112 91.1373V3.29412C112 2.42046 111.588 1.58259 110.855 0.964824C110.123 0.347057 109.129 0 108.093 0ZM104.186 87.8431H19.5348C15.3071 87.838 11.1925 88.9944 7.81394 91.1373V16.4706C7.81394 13.8496 9.04882 11.336 11.2469 9.48271C13.445 7.62941 16.4263 6.58824 19.5348 6.58824H104.186V87.8431Z" fill="#474747"/>
</svg>
