<svg width="112" height="112" viewBox="0 0 112 112" fill="none" xmlns="http://www.w3.org/2000/svg">
<path d="M9.33333 32.6667V23.3333C9.33333 20.7667 10.2472 18.5694 12.075 16.7417C13.9028 14.9139 16.1 14 18.6667 14H93.3333C95.9 14 98.0972 14.9139 99.925 16.7417C101.753 18.5694 102.667 20.7667 102.667 23.3333V32.6667H93.3333V23.3333H18.6667V32.6667H9.33333ZM37.3333 98V88.6667H18.6667C16.1 88.6667 13.9028 87.7528 12.075 85.925C10.2472 84.0972 9.33333 81.9 9.33333 79.3333V70H18.6667V79.3333H93.3333V70H102.667V79.3333C102.667 81.9 101.753 84.0972 99.925 85.925C98.0972 87.7528 95.9 88.6667 93.3333 88.6667H74.6667V98H37.3333ZM22.4 51.3333L34.5333 39.2L28 32.6667L9.33333 51.3333L28 70L34.5333 63.4667L22.4 51.3333ZM89.6 51.3333L77.4667 63.4667L84 70L102.667 51.3333L84 32.6667L77.4667 39.2L89.6 51.3333Z" fill="#474747"/>
</svg>
